<svg width="102" height="200" viewBox="0 0 102 200" fill="none" xmlns="http://www.w3.org/2000/svg">
<mask id="path-1-inside-1_97_1747" fill="white">
<path d="M8.91712e-06 97.9198C1.01176e-05 84.188 5.15349 60.0264 20.3559 39.0981C35.8676 17.7441 61.7108 2.71136e-05 102 0L102 16.3198C67.2976 16.3198 46.2205 31.2611 33.5602 48.6898C20.5906 66.5443 16.3198 87.263 16.3198 97.9198L102 97.9198L102 199.92L0 199.92L8.91712e-06 97.9198Z"/>
</mask>
<path d="M20.3559 39.0981L17.0549 36.7003V36.7003L20.3559 39.0981ZM102 0L106.08 3.56684e-07L106.08 -4.08L102 -4.08L102 0ZM102 16.3198L102 20.3998L106.08 20.3998L106.08 16.3198L102 16.3198ZM33.5602 48.6898L30.2592 46.2919L30.2592 46.2919L33.5602 48.6898ZM16.3198 97.9198L12.2398 97.9198L12.2398 102L16.3198 102L16.3198 97.9198ZM102 97.9198L106.08 97.9198L106.08 93.8398L102 93.8398L102 97.9198ZM102 199.92L102 204L106.08 204L106.08 199.92L102 199.92ZM0 199.92L-4.08 199.92L-4.08 204L-3.56685e-07 204L0 199.92ZM8.91712e-06 97.9198L4.08001 97.9198C4.08001 84.9565 9.01288 61.6556 23.6569 41.496L20.3559 39.0981L17.0549 36.7003C1.29411 58.3973 -4.07999 83.4196 -4.08 97.9198L8.91712e-06 97.9198ZM20.3559 39.0981L23.6569 41.496C38.4562 21.1227 63.1081 4.08002 102 4.08L102 0L102 -4.08C60.3135 -4.07999 33.279 14.3654 17.0549 36.7003L20.3559 39.0981ZM102 0L97.92 -3.56686e-07L97.92 16.3198L102 16.3198L106.08 16.3198L106.08 3.56684e-07L102 0ZM102 16.3198L102 12.2398C65.9017 12.2398 43.6328 27.8812 30.2592 46.2919L33.5602 48.6898L36.8612 51.0877C48.8082 34.6409 68.6935 20.3998 102 20.3998L102 16.3198ZM33.5602 48.6898L30.2592 46.2919C16.7316 64.9146 12.2398 86.4939 12.2398 97.9198L16.3198 97.9198L20.3998 97.9198C20.3998 88.0322 24.4496 68.174 36.8612 51.0877L33.5602 48.6898ZM16.3198 97.9198L16.3198 102L102 102L102 97.9198L102 93.8398L16.3198 93.8398L16.3198 97.9198ZM102 97.9198L97.92 97.9198L97.92 199.92L102 199.92L106.08 199.92L106.08 97.9198L102 97.9198ZM102 199.92L102 195.84L3.56685e-07 195.84L0 199.92L-3.56685e-07 204L102 204L102 199.92ZM0 199.92L4.08 199.92L4.08001 97.9198L8.91712e-06 97.9198L-4.08 97.9198L-4.08 199.92L0 199.92Z" fill="black" mask="url(#path-1-inside-1_97_1747)"/>
</svg>
